HIERARCHY
ROOT Hips
{
	OFFSET 0.000000 0.000000 0.000000 
	CHANNELS 6 Xposition Yposition Zposition Yrotation Zrotation Xrotation 
	JOINT Lumbar
	{
		OFFSET 0.000000 0.000000 0.000000 
		CHANNELS 3 Zrotation Xrotation Yrotation
		JOINT Neck
		{
			OFFSET 0.000000 0.445665 0.000000 
			CHANNELS 3 Zrotation Xrotation Yrotation
			End Site
			{
				OFFSET 0.000000 0.227535 0.000000 
			}
		}
		JOINT RightShoulder
		{
			OFFSET 0.019635 0.377685 0.194865 
			CHANNELS 3 Zrotation Xrotation Yrotation
			JOINT RightElbow
			{
				OFFSET 0.000000 -0.243375 0.000000 
				CHANNELS 2 Zrotation Yrotation
				JOINT RightWrist
				{
					OFFSET 0.000000 -0.264825 0.000000 
					CHANNELS 2 Zrotation Xrotation
					End Site
					{
						OFFSET 0.006600 -0.176220 0.000990 
					}
				}
			}
		}
		JOINT LeftShoulder
		{
			OFFSET 0.019635 0.377685 -0.194865 
			CHANNELS 3 Zrotation Xrotation Yrotation
			JOINT LeftElbow
			{
				OFFSET 0.000000 -0.243375 0.000000 
				CHANNELS 2 Zrotation Yrotation
				JOINT LeftWrist
				{
					OFFSET 0.000000 -0.264825 0.000000 
					CHANNELS 2 Zrotation Xrotation
					End Site
					{
						OFFSET 0.006600 -0.176220 -0.000990 
					}
				}
			}
		}
	}
	JOINT RightHip
	{
		OFFSET 0.052140 -0.069960 0.075570 
		CHANNELS 3 Zrotation Xrotation Yrotation
		JOINT RightKnee
		{
			OFFSET 0.000000 -0.402270 0.000000 
			CHANNELS 1 Zrotation
			JOINT RightAnkle
			{
				OFFSET 0.000000 -0.404085 0.000000 
				CHANNELS 3 Zrotation Xrotation Yrotation
				End Site
				{
					OFFSET 0.204105 -0.089430 0.008415 
				}
			}
		}
	}
	JOINT LeftHip
	{
		OFFSET 0.052140 -0.069960 -0.075570 
		CHANNELS 3 Zrotation Xrotation Yrotation
		JOINT LeftKnee
		{
			OFFSET 0.000000 -0.402270 0.000000 
			CHANNELS 1 Zrotation
			JOINT LeftAnkle
			{
				OFFSET 0.000000 -0.404085 0.000000 
				CHANNELS 3 Zrotation Xrotation Yrotation
				End Site
				{
					OFFSET 0.204105 -0.089430 -0.008415 
				}
			}
		}
	}
}
MOTION
Frames: 31
Frame Time: 0.02
0.0311 0.95372 0.03065 195.15035 0 -2.74991 -4.87949 -0.28253 0.23341 -20.60482 7.90802 8.39014 70.14294 -46.98351 55.35702 25.02391 78.62085 -3.94334 0.14843 31.83319 13.24101 -38.42951 84.4139 -89.07689 -24.06851 4.26841 -4.88612 2.84633 -16.60486 -4.62098 -2.53226 -2.98447 -8.42522 4.08359 3.85973 -5.85617 -10.7645 3.39002 0.59853 -2.84319
0.03149 0.95395 0.03225 195.20466 0 -2.75796 -4.93998 -0.40443 0.68961 -21.04717 8.40764 8.98064 72.41879 -46.43911 54.29466 26.86567 80.16908 -5.35814 -1.13605 32.27712 12.2114 -38.50043 83.50584 -89.4717 -24.05725 4.35441 -4.78293 2.73714 -16.43946 -4.83418 -2.57276 -3.00039 -8.57793 4.03316 3.79276 -5.60826 -10.63957 3.31482 0.55098 -3.02577
0.03185 0.95423 0.03389 194.95862 0 -2.78188 -4.97908 -0.50559 1.08538 -21.56026 8.96804 9.5941 74.32418 -45.50718 52.46463 30.05127 83.32733 -6.01632 -2.70996 32.6196 11.16309 -38.29985 82.62147 -89.91184 -24.10078 4.44751 -4.61218 2.61386 -16.04214 -5.08532 -2.64151 -3.00563 -8.70466 3.92617 3.74679 -5.21782 -10.52413 3.27579 0.54708 -3.08137
0.03222 0.95448 0.0355 194.84436 0 -2.79814 -5.03043 -0.61577 1.48977 -22.03394 9.49321 10.18502 76.33813 -44.74942 51.06396 32.69455 85.56672 -6.96202 -4.12915 32.9902 10.14995 -38.2041 81.75129 -90.32598 -24.12485 4.53456 -4.47448 2.49764 -15.75282 -5.31344 -2.69698 -3.01413 -8.83801 3.84616 3.69089 -4.89571 -10.40928 3.22343 0.52357 -3.18926
0.03262 0.95476 0.03714 194.74262 0 -2.81638 -5.06993 -0.72686 1.97439 -22.54492 10.05274 10.83072 78.6321 -43.99647 49.34568 35.0838 88.51218 -8.18838 -5.66615 33.44295 9.01903 -38.18393 80.76574 -90.76304 -24.1284 4.63338 -4.32421 2.37786 -15.44488 -5.56884 -2.75463 -3.02923 -8.99318 3.75785 3.63694 -4.54704 -10.27097 3.15784 0.49864 -3.32263
0.03294 0.95499 0.03873 194.54741 0 -2.83422 -5.12982 -0.83151 2.27734 -22.99036 10.55337 11.36525 80.23754 -43.15049 48.09522 38.30476 90.41353 -8.63334 -7.01249 33.69662 8.13235 -37.94362 80.03122 -91.16142 -24.18649 4.70934 -4.18561 2.26259 -15.12453 -5.77484 -2.81419 -3.02833 -9.097 3.67486 3.58361 -4.22611 -10.18528 3.12852 0.48762 -3.37121
0.03306 0.9551 0.04015 194.15434 0 -2.84727 -5.24703 -0.92258 2.09251 -23.26312 10.88735 11.60039 80.11571 -42.04831 48.35998 43.52747 88.89465 -7.11145 -7.84142 33.44391 7.90805 -37.15355 79.96883 -91.46224 -24.38505 4.72152 -4.08952 2.16151 -14.81574 -5.84124 -2.87362 -2.98295 -9.06222 3.61622 3.52899 -3.99431 -10.23723 3.18932 0.49912 -3.2238
0.03309 0.95517 0.0415 193.68128 0 -2.85931 -5.38638 -1.00812 1.72702 -23.4621 11.15758 11.71986 79.29634 -40.88356 49.1125 49.52537 86.30858 -4.82121 -8.45299 32.99062 7.93376 -36.15356 80.16238 -91.71907 -24.63557 4.7103 -4.00901 2.06583 -14.506 -5.85524 -2.93366 -2.92234 -8.97703 3.56612 3.47381 -3.801 -10.34315 3.28554 0.52398 -2.99405
0.03316 0.95525 0.04289 193.25389 0 -2.87166 -5.5185 -1.09695 1.44475 -23.67741 11.44994 11.88351 78.73756 -39.80731 49.61592 55.14766 84.31203 -2.87424 -9.10832 32.6159 7.85646 -35.25483 80.24989 -91.98285 -24.86004 4.70912 -3.92571 1.9689 -14.20412 -5.88884 -2.99243 -2.87066 -8.91729 3.51511 3.41753 -3.60592 -10.42815 3.36639 0.54625 -2.79681
0.03325 0.95535 0.04427 192.77498 0 -2.88519 -5.63796 -1.18193 1.15564 -23.96776 11.77409 12.08421 78.40032 -38.46047 50.20955 60.93518 81.9193 -0.93075 -10.00126 32.28933 7.73385 -34.32003 80.29445 -92.30296 -25.09728 4.71066 -3.82173 1.86646 -13.86043 -5.94129 -3.05648 -2.81025 -8.84685 3.44919 3.3679 -3.33883 -10.49812 3.44566 0.55574 -2.615
0.03326 0.95539 0.04564 192.39034 0 -2.89582 -5.78929 -1.27369 0.83865 -24.08349 12.01515 12.17896 77.44583 -37.67187 50.74006 66.5208 80.08984 1.19797 -10.35015 31.81807 7.76499 -33.41634 80.48928 -92.49504 -25.31884 4.70093 -3.76559 1.77689 -13.60943 -5.94191 -3.10917 -2.7644 -8.78591 3.41751 3.30376 -3.23339 -10.61222 3.53587 0.59395 -2.38429
0.03306 0.95524 0.04695 192.26964 0 -2.89868 -6.0235 -1.38739 0.48922 -23.73352 12.05025 12.01797 74.91789 -38.40117 50.98829 71.55253 79.96715 3.59839 -9.19278 30.98034 8.16168 -32.63194 81.03364 -92.34138 -25.49005 4.66537 -3.83661 1.72233 -13.59167 -5.80866 -3.13143 -2.76373 -8.77377 3.47502 3.20174 -3.55986 -10.8337 3.64991 0.71218 -2.0298
0.03278 0.95502 0.04826 192.25088 0 -2.89859 -6.28897 -1.50789 0.11831 -23.21056 12.0023 11.75283 71.8048 -39.70162 51.15779 76.30706 80.46021 6.16058 -7.50408 30.00772 8.70381 -31.89096 81.72041 -92.06071 -25.64232 4.61931 -3.95571 1.68043 -13.67228 -5.62566 -3.14192 -2.77807 -8.77139 3.56745 3.08467 -4.04877 -11.09772 3.77306 0.85779 -1.63153
0.03255 0.95484 0.04958 192.19768 0 -2.89978 -6.54017 -1.62413 -0.24287 -22.76709 11.98673 11.52943 68.98395 -40.7706 51.35981 81.06032 80.73617 8.68424 -6.09521 29.10744 9.17856 -31.14311 82.34426 -91.83993 -25.79931 4.57834 -4.05404 1.63238 -13.72457 -5.46739 -3.1569 -2.78473 -8.75767 3.64651 2.97298 -4.46809 -11.34334 3.89046 0.98812 -1.25939
0.03228 0.95465 0.05084 192.09208 0 -2.9012 -6.79283 -1.74504 -0.61076 -22.31623 11.99108 11.32483 66.01612 -41.72679 51.59242 86.39636 80.71343 11.10444 -4.51895 28.1522 9.66903 -30.33291 82.97117 -91.60855 -25.97468 4.53528 -4.14871 1.58639 -13.70915 -5.29777 -3.17543 -2.79438 -8.77036 3.71584 2.86728 -4.87322 -11.58782 4.01621 1.13127 -0.85677
0.03206 0.95445 0.05223 192.11991 0 -2.90143 -7.04907 -1.85801 -0.96679 -21.84209 11.93574 11.05882 63.23878 -43.04405 51.736 90.4203 81.46981 13.74717 -3.16549 27.28363 10.15603 -29.66631 83.62005 -91.36959 -26.10645 4.49431 -4.2617 1.53878 -13.85609 -5.14138 -3.18391 -2.80169 -8.73224 3.81292 2.74572 -5.34298 -11.84292 4.12591 1.25362 -0.50983
0.03199 0.95424 0.05395 192.50023 0 -2.89922 -7.31169 -1.94631 -1.28829 -21.3339 11.72983 10.64164 61.01575 -45.30761 51.65444 91.07105 84.25055 17.13873 -2.57891 26.67585 10.61374 -29.38292 84.31083 -91.14171 -26.12318 4.4625 -4.41795 1.48589 -14.44518 -5.02788 -3.16616 -2.79791 -8.54103 3.98408 2.58269 -5.97733 -12.12629 4.19182 1.31523 -0.31488
0.03197 0.95403 0.0558 193.00962 0 -2.89592 -7.57582 -2.02655 -1.59488 -20.81095 11.46816 10.16863 59.03135 -47.89775 51.48307 90.37289 87.79106 20.70971 -2.23181 26.16374 11.05854 -29.24499 85.0138 -90.91092 -26.09634 4.43319 -4.5899 1.43044 -15.19057 -4.93092 -3.13894 -2.79149 -8.30048 4.18069 2.40452 -6.66594 -12.41676 4.24063 1.35432 -0.18003
0.03193 0.95382 0.0576 193.45505 0 -2.89299 -7.8366 -2.11126 -1.90593 -20.30295 11.23634 9.72583 57.01438 -50.28142 51.34984 90.16866 90.97841 24.0837 -1.76203 25.61566 11.49783 -29.04221 85.70026 -90.68064 -26.08863 4.40228 -4.75191 1.37473 -15.85319 -4.83021 -3.11697 -2.78699 -8.08966 4.36184 2.23413 -7.31283 -12.69766 4.29521 1.40135 -0.02655
0.03187 0.9536 0.05934 193.92823 0 -2.89036 -8.11029 -2.19304 -2.23034 -19.75373 10.98259 9.25697 54.64905 -52.93346 51.22659 90.45772 94.23577 27.96155 -1.33242 25.02853 11.99115 -28.83193 86.44112 -90.44806 -26.08285 4.37274 -4.92821 1.32569 -16.57042 -4.71111 -3.09063 -2.78002 -7.84855 4.56113 2.05922 -8.03821 -13.00719 4.35833 1.4588 0.16427
0.03186 0.95341 0.06124 194.37058 0 -2.88705 -8.35635 -2.27865 -2.51969 -19.28955 10.76229 8.83293 53.08265 -55.09242 51.06077 89.40292 97.49985 30.81745 -0.8825 24.55041 12.36598 -28.67577 87.066 -90.22283 -26.06331 4.34133 -5.07691 1.26171 -17.20773 -4.63582 -3.07127 -2.77731 -7.65835 4.72762 1.89057 -8.60992 -13.25779 4.39977 1.48913 0.26361
0.03197 0.95337 0.0635 194.71606 0 -2.88068 -8.53126 -2.37894 -2.74467 -19.06136 10.64954 8.52632 53.59081 -55.84274 50.81149 84.96743 100.76148 30.91691 -0.32849 24.32327 12.42365 -28.59441 87.3982 -90.00532 -26.01309 4.30198 -5.15297 1.15922 -17.60278 -4.67008 -3.07381 -2.78754 -7.62368 4.80219 1.74108 -8.75075 -13.34689 4.38278 1.44722 0.11439
0.03213 0.95337 0.06591 195.02173 0 -2.87397 -8.67707 -2.48292 -2.92953 -18.92073 10.57279 8.27097 54.91044 -56.07645 50.5209 79.23127 103.96641 29.96195 0.2508 24.20775 12.36042 -28.56904 87.60711 -89.79825 -25.95109 4.26111 -5.19894 1.0413 -17.90832 -4.7497 -3.08368 -2.80193 -7.64125 4.84162 1.59893 -8.73262 -13.37541 4.34495 1.37913 -0.12329
0.03226 0.95335 0.06826 195.33224 0 -2.86835 -8.83249 -2.58379 -3.11352 -18.7423 10.4786 8.0059 55.91089 -56.52244 50.24114 74.0868 107.09058 29.41505 0.8262 24.05987 12.34733 -28.54413 87.85129 -89.59595 -25.89697 4.22242 -5.25373 0.92901 -18.24353 -4.81334 -3.09006 -2.81404 -7.63311 4.89392 1.45462 -8.78248 -13.42985 4.3185 1.32488 -0.31347
0.0324 0.95333 0.07059 195.70371 0 -2.85867 -9.00343 -2.69047 -3.37699 -18.55422 10.38581 7.68172 56.71407 -57.07567 49.99024 68.87638 110.70562 29.16832 1.37266 23.83961 12.35435 -28.41717 88.18238 -89.35396 -25.83132 4.17754 -5.33013 0.82255 -18.63107 -4.85703 -3.09682 -2.82791 -7.632 4.9608 1.30449 -8.85377 -13.49244 4.2837 1.26196 -0.53563
0.03253 0.95332 0.07298 195.93653 0 -2.85748 -9.13486 -2.78599 -3.4664 -18.408 10.30082 7.49331 58.11258 -57.27789 49.67248 63.53238 113.25697 28.05176 1.97448 23.79298 12.29067 -28.51137 88.30458 -89.19634 -25.78664 4.14513 -5.35348 0.70023 -18.88589 -4.95401 -3.10458 -2.83889 -7.62875 4.98789 1.16883 -8.8401 -13.52221 4.2612 1.21079 -0.71253
0.03261 0.95332 0.07554 195.79968 0 -2.87914 -9.16663 -2.85017 -3.07815 -18.3502 10.21695 7.67014 60.9995 -56.63976 49.16555 57.9745 113.03988 24.72152 2.84577 24.21896 12.06354 -29.2254 87.8662 -89.27711 -25.81047 4.14785 -5.24317 0.53868 -18.79796 -5.17737 -3.11398 -2.84285 -7.61183 4.92009 1.06809 -8.64611 -13.48817 4.28108 1.20182 -0.73263
0.03267 0.95332 0.07815 195.52329 0 -2.90955 -9.15926 -2.90295 -2.51765 -18.33273 10.1422 7.98162 64.44661 -55.66413 48.5966 52.3674 111.72702 20.56614 3.75217 24.81146 11.76923 -30.1547 87.22448 -89.44126 -25.85488 4.16313 -5.07923 0.36165 -18.57804 -5.45473 -3.12408 -2.84346 -7.59044 4.81224 0.98238 -8.36922 -13.42116 4.31361 1.20515 -0.70546
0.03273 0.95333 0.08072 195.30796 0 -2.93632 -9.16819 -2.96076 -2.04036 -18.30057 10.07111 8.22981 67.61017 -54.83954 48.06533 46.89294 110.80328 16.83118 4.56055 25.31391 11.50413 -30.97018 86.68479 -89.5617 -25.88471 4.1724 -4.9364 0.19109 -18.41702 -5.71335 -3.13338 -2.8442 -7.56778 4.71823 0.89193 -8.11957 -13.36107 4.33818 1.20062 -0.70665
0.03283 0.95332 0.08334 195.10157 0 -2.96141 -9.18213 -3.01941 -1.54014 -18.25588 9.96809 8.48845 70.93178 -54.00665 47.48986 40.89431 110.3148 12.86063 5.70774 25.88127 11.2398 -31.85669 86.0998 -89.70591 -25.93504 4.1828 -4.807 0.02202 -18.25904 -5.94816 -3.14481 -2.85066 -7.56007 4.64092 0.79274 -7.90734 -13.33195 4.37104 1.20433 -0.68306
0.03285 0.95335 0.08588 194.84357 0 -2.99238 -9.17702 -3.07347 -1.04817 -18.24602 9.93351 8.75683 74.03746 -53.11808 46.99557 36.00836 108.68884 9.20745 6.1678 26.35118 10.96021 -32.64375 85.56295 -89.82171 -25.94913 4.19397 -4.63643 -0.1532 -18.06264 -6.24592 -3.15206 -2.8447 -7.52046 4.52042 0.71544 -7.60094 -13.23248 4.3903 1.19467 -0.69727
